name baseline.mot
datacolumns 19
datarows 12
range 6.17831400000000 6.19665300000000
endheader
time	ground_force1_vx	ground_force1_vy	ground_force1_vz	ground_force1_px	ground_force1_py	ground_force1_pz	ground_force2_vx	ground_force2_vy	ground_force2_vz	ground_force2_px	ground_force2_py	ground_force2_pz	ground_torque1_x	ground_torque1_y	ground_torque1_z	ground_torque2_x	ground_torque2_y	ground_torque2_z	
6.17831400000000	70.64756100000000	784.71955400000002	77.84280699999999	0.18753700000000	0.00000000000000	0.16198800000000	0.00000000000000	0.00000000000000	0.00000000000000	0.00000000000000	0.00000000000000	0.00000000000000	0.00000000000000	5.40666900000000	0.00000000000000	0.00000000000000	0.00000000000000	0.00000000000000	
6.18000000000000	69.92362000000000	785.60960599999999	77.77827600000001	0.18686000000000	0.00000000000000	0.16195300000000	0.00000000000000	0.00000000000000	0.00000000000000	0.00000000000000	0.00000000000000	0.00000000000000	0.00000000000000	5.46041400000000	0.00000000000000	0.00000000000000	0.00000000000000	0.00000000000000	
6.18173000000000	69.20553900000000	786.39682700000003	77.72147600000000	0.18619300000000	0.00000000000000	0.16192000000000	0.00000000000000	0.00000000000000	0.00000000000000	0.00000000000000	0.00000000000000	0.00000000000000	0.00000000000000	5.51799000000000	0.00000000000000	0.00000000000000	0.00000000000000	0.00000000000000	
6.18331300000000	68.49324500000000	787.08001000000002	77.67211300000000	0.18553500000000	0.00000000000000	0.16188800000000	0.00000000000000	0.00000000000000	0.00000000000000	0.00000000000000	0.00000000000000	0.00000000000000	0.00000000000000	5.57923000000000	0.00000000000000	0.00000000000000	0.00000000000000	0.00000000000000	
6.18498800000000	67.78661900000000	787.65808800000002	77.62979600000000	0.18488400000000	0.00000000000000	0.16185800000000	0.00000000000000	0.00000000000000	0.00000000000000	0.00000000000000	0.00000000000000	0.00000000000000	0.00000000000000	5.64394400000000	0.00000000000000	0.00000000000000	0.00000000000000	0.00000000000000	
6.18665400000000	67.08549499999999	788.13013799999999	77.59404400000000	0.18423700000000	0.00000000000000	0.16183000000000	0.00000000000000	0.00000000000000	0.00000000000000	0.00000000000000	0.00000000000000	0.00000000000000	0.00000000000000	5.71191300000000	0.00000000000000	0.00000000000000	0.00000000000000	0.00000000000000	
6.18831200000000	66.38967200000000	788.49540100000002	77.56429600000000	0.18359400000000	0.00000000000000	0.16180400000000	0.00000000000000	0.00000000000000	0.00000000000000	0.00000000000000	0.00000000000000	0.00000000000000	0.00000000000000	5.78289900000000	0.00000000000000	0.00000000000000	0.00000000000000	0.00000000000000	
6.18998600000000	65.69891200000001	788.75328800000000	77.53991100000000	0.18295200000000	0.00000000000000	0.16177900000000	0.00000000000000	0.00000000000000	0.00000000000000	0.00000000000000	0.00000000000000	0.00000000000000	0.00000000000000	5.85664000000000	0.00000000000000	0.00000000000000	0.00000000000000	0.00000000000000	
6.19165000000000	65.01295500000001	788.90339100000006	77.52018500000000	0.18231000000000	0.00000000000000	0.16175600000000	0.00000000000000	0.00000000000000	0.00000000000000	0.00000000000000	0.00000000000000	0.00000000000000	0.00000000000000	5.93285900000000	0.00000000000000	0.00000000000000	0.00000000000000	0.00000000000000	
6.19331300000000	64.33151599999999	788.94549300000006	77.50435400000001	0.18166600000000	0.00000000000000	0.16173400000000	0.00000000000000	0.00000000000000	0.00000000000000	0.00000000000000	0.00000000000000	0.00000000000000	0.00000000000000	6.01126200000000	0.00000000000000	0.00000000000000	0.00000000000000	0.00000000000000	
6.19498300000000	63.65429400000000	788.87957500000005	77.49160100000000	0.18101800000000	0.00000000000000	0.16171300000000	0.00000000000000	0.00000000000000	0.00000000000000	0.00000000000000	0.00000000000000	0.00000000000000	0.00000000000000	6.09153800000000	0.00000000000000	0.00000000000000	0.00000000000000	0.00000000000000	
6.19665300000000	62.98097700000000	788.70582200000001	77.48106799999999	0.18036500000000	0.00000000000000	0.16169400000000	0.00000000000000	0.00000000000000	0.00000000000000	0.00000000000000	0.00000000000000	0.00000000000000	0.00000000000000	6.17337000000000	0.00000000000000	0.00000000000000	0.00000000000000	0.00000000000000	
